<?xml version="1.0" encoding="UTF-8"?>
<!DOCTYPE svg PUBLIC "-//W3C//DTD SVG 1.1//EN" "http://www.w3.org/Graphics/SVG/1.1/DTD/svg11.dtd">
<!-- Creator: CorelDRAW 2021 (64-Bit) -->
<svg xmlns="http://www.w3.org/2000/svg" xml:space="preserve" width="5.97552in" height="0.937138in" version="1.1" style="shape-rendering:geometricPrecision; text-rendering:geometricPrecision; image-rendering:optimizeQuality; fill-rule:evenodd; clip-rule:evenodd"
viewBox="0 0 5886.73 923.21"
 xmlns:xlink="http://www.w3.org/1999/xlink"
 xmlns:xodm="http://www.corel.com/coreldraw/odm/2003">
 <defs>
  <style type="text/css">
   <![CDATA[
    .fil2 {fill:#0098DA}
    .fil3 {fill:#264E6B}
    .fil0 {fill:#3E474C;fill-rule:nonzero}
    .fil1 {fill:#1E3F32;fill-rule:nonzero}
   ]]>
  </style>
 </defs>
 <g id="Layer_x0020_1">
  <metadata id="CorelCorpID_0Corel-Layer"/>
  <g id="_2464201949296">
   <path class="fil0" d="M1344.87 606.02l0 -529.93 219.28 0c155.72,0 233.58,88.45 233.58,265.5 0,176.24 -80.64,264.43 -242.06,264.43l-210.8 0zm153.34 -43.7l40.39 0c36.81,0 62.37,-16.03 76.53,-47.93 14.17,-32.05 21.32,-89.91 21.32,-173.6 0,-83.55 -7.02,-141.42 -21.05,-173.2 -14.04,-31.91 -39.73,-47.8 -76.8,-47.8l-40.39 0 0 442.53zm608.32 -486.23l147.38 529.93 -154.4 0 -31.38 -115.2 -159.43 0 -33.77 115.2 -60.12 0 156.78 -529.93 134.93 0zm-182.73 361.5l130.03 0 -62.5 -234.11 -67.53 234.11zm578.53 -117.58l218.48 0 0 286.02 -48.86 0 -16.69 -36.42c-42.64,30.06 -87.79,45.15 -135.46,45.15 -78.52,0 -139.43,-23.44 -182.86,-70.45 -43.3,-46.87 -65.02,-113.08 -65.02,-198.36 0,-83.02 23.04,-150.29 68.99,-201.53 45.95,-51.38 106.07,-77.07 180.35,-77.07 97.85,0 157.44,50.05 178.63,150.16l-72.04 32.84 0 -12.85 -1.19 -28.6c-4.9,-62.63 -33.9,-93.88 -86.73,-93.88 -38.93,0 -65.55,16.55 -79.71,49.66 -14.3,33.1 -21.45,94.81 -21.45,185.11 0,84.35 5.83,141.69 17.35,171.88 11.52,30.33 33.5,45.42 66.07,45.42 38.13,0 57.2,-21.19 57.2,-63.56l0 -130.3 -77.07 0 0 -53.23zm534.43 -243.91l147.38 529.93 -154.4 0 -31.38 -115.2 -159.43 0 -33.77 115.2 -60.12 0 156.78 -529.93 134.93 0zm-182.73 361.5l130.03 0 -62.5 -234.11 -67.53 234.11zm816.74 -117.58l218.48 0 0 286.02 -48.86 0 -16.69 -36.42c-42.64,30.06 -87.79,45.15 -135.46,45.15 -78.52,0 -139.43,-23.44 -182.86,-70.45 -43.3,-46.87 -65.02,-113.08 -65.02,-198.36 0,-83.02 23.04,-150.29 68.99,-201.53 45.95,-51.38 106.07,-77.07 180.35,-77.07 97.85,0 157.44,50.05 178.63,150.16l-72.04 32.84 0 -12.85 -1.19 -28.6c-4.9,-62.63 -33.9,-93.88 -86.73,-93.88 -38.93,0 -65.55,16.55 -79.71,49.66 -14.3,33.1 -21.45,94.81 -21.45,185.11 0,84.35 5.83,141.69 17.35,171.88 11.52,30.33 33.5,45.42 66.07,45.42 38.13,0 57.2,-21.19 57.2,-63.56l0 -130.3 -77.07 0 0 -53.23zm294.23 286.02l0 -529.93 227.49 0c59.19,0 106.59,12.45 141.95,37.47 35.49,25.03 53.23,58.53 53.23,100.64 0,64.22 -38.01,106.2 -114.14,125.53 39.06,14.56 64.36,30.45 75.88,47.67 11.52,17.35 19.33,50.98 23.44,100.77 4.9,59.45 14.83,98.78 29.79,117.85l-166.71 0c-10.59,-24.5 -15.89,-55.22 -15.89,-91.9l-0.8 -31.38 -0.79 -39.46c0,-61.04 -24.63,-91.5 -73.76,-91.5l-26.35 0 0 254.24 -153.34 0zm153.34 -297.94l30.99 0c58.26,0 87.39,-30.45 87.39,-91.37 0,-60.91 -29.13,-91.37 -87.39,-91.37l-30.99 0 0 182.73zm564.62 -240.73c154.26,0 231.33,91.23 231.33,273.7 0,182.47 -78.52,273.7 -235.57,273.7 -157.04,0 -235.56,-93.35 -235.56,-279.92 0,-178.36 79.98,-267.48 239.8,-267.48zm-4.24 42.11c-29,0 -48.73,16.02 -58.92,47.93 -10.2,31.91 -15.36,93.09 -15.36,183.66 0,90.57 5.17,151.75 15.36,183.66 10.19,31.91 29.92,47.93 58.92,47.93 29,0 48.73,-16.03 58.93,-47.93 10.2,-31.91 15.36,-93.09 15.36,-183.66 0,-90.31 -5.16,-151.48 -15.36,-183.53 -10.2,-32.04 -29.93,-48.07 -58.93,-48.07zm701.93 -33.37l0 355.8c0,121.96 -67.4,182.86 -202.2,182.86 -134.27,0 -201.4,-60.91 -201.4,-182.86l0 -355.8 153.34 0 0 360.44c0,46.61 6.62,78.39 19.99,95.47 13.38,17.08 38.01,25.56 74.02,25.56 69.78,0 104.61,-41.84 104.61,-125.66l0 -355.8 51.64 0zm83.42 529.93l0 -529.93 228.15 0c129.64,0 194.52,52.04 194.52,156.12 0,105.14 -72.04,157.71 -216.23,157.71l-53.1 0 0 216.1 -153.34 0zm153.34 -265.36l34.56 0c55.88,0 83.82,-37.08 83.82,-111.1 0,-69.52 -27.94,-104.21 -83.82,-104.21l-34.56 0 0 215.31z"/>
   <path class="fil1" d="M3626.18 873.07l18.44 -1.66c0.86,7.46 2.9,13.57 6.11,18.37 3.21,4.77 8.18,8.63 14.92,11.6 6.74,2.94 14.33,4.42 22.76,4.42 7.49,0 14.09,-1.11 19.82,-3.35 5.73,-2.25 9.98,-5.32 12.78,-9.22 2.8,-3.9 4.21,-8.15 4.21,-12.71 0,-4.63 -1.35,-8.67 -4.04,-12.16 -2.69,-3.45 -7.15,-6.35 -13.36,-8.74 -3.97,-1.52 -12.78,-3.94 -26.42,-7.21 -13.64,-3.28 -23.17,-6.36 -28.63,-9.26 -7.08,-3.73 -12.33,-8.35 -15.78,-13.85 -3.49,-5.49 -5.21,-11.67 -5.21,-18.47 0,-7.53 2.14,-14.54 6.39,-21.03 4.25,-6.53 10.43,-11.46 18.61,-14.85 8.15,-3.39 17.23,-5.08 27.21,-5.08 10.98,0 20.68,1.76 29.08,5.32 8.39,3.52 14.85,8.74 19.37,15.64 4.52,6.87 6.94,14.68 7.29,23.38l-18.86 1.45c-1,-9.36 -4.42,-16.44 -10.25,-21.2 -5.84,-4.8 -14.47,-7.18 -25.87,-7.18 -11.88,0 -20.55,2.18 -25.97,6.53 -5.42,4.35 -8.15,9.6 -8.15,15.75 0,5.32 1.94,9.7 5.77,13.16 3.8,3.42 13.64,6.98 29.6,10.57 15.95,3.63 26.9,6.77 32.84,9.46 8.6,3.97 14.99,8.97 19.1,15.09 4.11,6.08 6.15,13.09 6.15,21.03 0,7.91 -2.25,15.3 -6.77,22.27 -4.52,6.97 -10.98,12.4 -19.44,16.26 -8.46,3.87 -17.96,5.8 -28.56,5.8 -13.4,0 -24.62,-1.97 -33.67,-5.87 -9.08,-3.9 -16.16,-9.77 -21.3,-17.64 -5.18,-7.84 -7.87,-16.72 -8.15,-26.63zm178.09 47.66l0 -148.35 56.01 0c9.84,0 17.37,0.48 22.58,1.42 7.29,1.21 13.4,3.52 18.34,6.91 4.94,3.42 8.91,8.18 11.91,14.3 3,6.11 4.49,12.85 4.49,20.2 0,12.57 -4,23.24 -12.05,31.94 -8.01,8.74 -22.55,13.09 -43.55,13.09l-38.05 0 0 60.5 -19.69 0zm19.69 -77.91l38.33 0c12.71,0 21.68,-2.35 27.04,-7.08 5.32,-4.73 7.98,-11.36 7.98,-19.96 0,-6.18 -1.56,-11.5 -4.7,-15.92 -3.14,-4.42 -7.29,-7.35 -12.4,-8.77 -3.32,-0.86 -9.43,-1.31 -18.3,-1.31l-37.95 0 0 53.04zm155.29 77.91l0 -148.35 19.68 0 0 148.35 -19.68 0zm88.13 0l0 -148.35 65.75 0c13.23,0 23.27,1.35 30.15,4.01 6.87,2.66 12.36,7.35 16.47,14.09 4.11,6.74 6.15,14.2 6.15,22.34 0,10.53 -3.42,19.41 -10.22,26.63 -6.8,7.22 -17.3,11.78 -31.53,13.74 5.22,2.49 9.15,4.98 11.84,7.39 5.73,5.25 11.15,11.84 16.23,19.75l25.66 40.4 -24.52 0 -19.62 -30.87c-5.7,-8.94 -10.43,-15.75 -14.12,-20.48 -3.73,-4.73 -7.05,-8.01 -9.98,-9.91 -2.9,-1.87 -5.91,-3.18 -8.94,-3.94 -2.21,-0.45 -5.84,-0.69 -10.91,-0.69l-22.72 0 0 65.89 -19.68 0zm19.68 -82.88l42.13 0c8.98,0 15.95,-0.93 20.99,-2.8 5.04,-1.83 8.88,-4.8 11.46,-8.91 2.63,-4.08 3.94,-8.49 3.94,-13.3 0,-7.01 -2.52,-12.81 -7.59,-17.34 -5.08,-4.52 -13.09,-6.77 -24.04,-6.77l-46.9 0 0 49.11zm166.31 82.88l0 -148.35 19.68 0 0 148.35 -19.68 0zm125.42 0l0 -130.95 -48.9 0 0 -17.4 117.48 0 0 17.4 -48.9 0 0 130.95 -19.68 0zm170.14 -72.21c0,-24.59 6.63,-43.85 19.86,-57.77 13.23,-13.92 30.28,-20.86 51.21,-20.86 13.71,0 26.04,3.28 37.06,9.8 10.98,6.53 19.37,15.65 25.14,27.35 5.76,11.67 8.66,24.93 8.66,39.75 0,15.02 -3.04,28.49 -9.11,40.34 -6.08,11.88 -14.68,20.86 -25.8,26.94 -11.15,6.11 -23.17,9.15 -36.05,9.15 -13.99,0 -26.45,-3.38 -37.47,-10.12 -10.98,-6.73 -19.34,-15.92 -25,-27.59 -5.67,-11.64 -8.5,-23.97 -8.5,-36.99zm20.31 0.35c0,17.86 4.8,31.91 14.4,42.17 9.6,10.25 21.65,15.4 36.16,15.4 14.78,0 26.9,-5.18 36.47,-15.54 9.53,-10.36 14.3,-25.07 14.3,-44.13 0,-12.05 -2.04,-22.58 -6.11,-31.56 -4.08,-8.98 -10.05,-15.95 -17.89,-20.89 -7.87,-4.94 -16.68,-7.43 -26.45,-7.43 -13.89,0 -25.83,4.77 -35.85,14.3 -10.01,9.53 -15.02,25.42 -15.02,47.69zm181.37 71.86l0 -148.35 100.07 0 0 17.4 -80.39 0 0 46.2 69.62 0 0 17.41 -69.62 0 0 67.34 -19.68 0zm217.59 0l0 -148.35 100.07 0 0 17.4 -80.39 0 0 46.2 69.62 0 0 17.41 -69.62 0 0 67.34 -19.68 0zm131.3 0l56.91 -148.35 21.58 0 60.43 148.35 -22.38 0 -17.16 -44.96 -62.47 0 -16.09 44.96 -20.82 0zm42.68 -60.92l50.56 0 -15.47 -41.13c-4.66,-12.5 -8.18,-22.83 -10.63,-30.98 -2.04,9.67 -4.77,19.17 -8.19,28.56l-16.26 43.55zm144.42 60.92l0 -148.35 55.67 0c11.33,0 20.41,1.49 27.28,4.49 6.84,3.01 12.19,7.63 16.06,13.89 3.9,6.21 5.83,12.74 5.83,19.58 0,6.32 -1.73,12.29 -5.14,17.89 -3.42,5.59 -8.6,10.12 -15.54,13.57 8.98,2.63 15.89,7.11 20.68,13.47 4.84,6.32 7.25,13.81 7.25,22.44 0,6.98 -1.49,13.44 -4.42,19.41 -2.93,5.97 -6.56,10.57 -10.88,13.81 -4.32,3.21 -9.74,5.67 -16.23,7.32 -6.53,1.66 -14.5,2.49 -23.97,2.49l-56.6 0zm19.68 -85.99l32.08 0c8.7,0 14.96,-0.59 18.72,-1.73 5.01,-1.49 8.77,-3.97 11.29,-7.43 2.52,-3.45 3.8,-7.77 3.8,-12.98 0,-4.94 -1.18,-9.29 -3.56,-13.02 -2.35,-3.77 -5.73,-6.35 -10.12,-7.73 -4.39,-1.38 -11.91,-2.08 -22.55,-2.08l-29.66 0 0 44.96zm0 68.58l36.95 0c6.35,0 10.81,-0.24 13.4,-0.73 4.49,-0.8 8.29,-2.14 11.33,-4.04 3.04,-1.9 5.52,-4.66 7.49,-8.29 1.97,-3.63 2.94,-7.8 2.94,-12.54 0,-5.56 -1.42,-10.36 -4.28,-14.47 -2.83,-4.11 -6.77,-6.97 -11.81,-8.63 -5.01,-1.66 -12.26,-2.49 -21.69,-2.49l-34.32 0 0 51.18zm153.22 17.4l0 -148.35 65.75 0c13.23,0 23.27,1.35 30.15,4.01 6.87,2.66 12.36,7.35 16.47,14.09 4.11,6.74 6.15,14.2 6.15,22.34 0,10.53 -3.42,19.41 -10.22,26.63 -6.8,7.22 -17.3,11.78 -31.53,13.74 5.22,2.49 9.15,4.98 11.84,7.39 5.73,5.25 11.15,11.84 16.23,19.75l25.66 40.4 -24.52 0 -19.62 -30.87c-5.7,-8.94 -10.43,-15.75 -14.12,-20.48 -3.73,-4.73 -7.05,-8.01 -9.98,-9.91 -2.9,-1.87 -5.91,-3.18 -8.94,-3.94 -2.21,-0.45 -5.84,-0.69 -10.91,-0.69l-22.72 0 0 65.89 -19.68 0zm19.68 -82.88l42.13 0c8.98,0 15.95,-0.93 20.99,-2.8 5.04,-1.83 8.88,-4.8 11.46,-8.91 2.63,-4.08 3.94,-8.49 3.94,-13.3 0,-7.01 -2.52,-12.81 -7.59,-17.34 -5.08,-4.52 -13.09,-6.77 -24.04,-6.77l-46.9 0 0 49.11zm166.31 82.88l0 -148.35 19.68 0 0 148.35 -19.68 0zm193.39 -52.04l19.68 4.97c-4.11,16.13 -11.5,28.39 -22.17,36.85 -10.67,8.46 -23.72,12.71 -39.16,12.71 -15.96,0 -28.94,-3.25 -38.95,-9.77 -10.02,-6.49 -17.61,-15.92 -22.83,-28.25 -5.21,-12.36 -7.84,-25.59 -7.84,-39.75 0,-15.44 2.94,-28.9 8.84,-40.4 5.91,-11.5 14.3,-20.24 25.18,-26.21 10.88,-5.98 22.86,-8.94 35.91,-8.94 14.85,0 27.32,3.76 37.4,11.33 10.12,7.56 17.16,18.17 21.13,31.84l-19.27 4.56c-3.42,-10.77 -8.42,-18.65 -14.95,-23.55 -6.53,-4.94 -14.75,-7.39 -24.66,-7.39 -11.36,0 -20.89,2.73 -28.52,8.18 -7.63,5.46 -13.02,12.81 -16.1,22 -3.11,9.22 -4.66,18.72 -4.66,28.49 0,12.61 1.83,23.62 5.49,33.01 3.66,9.43 9.36,16.44 17.09,21.1 7.74,4.66 16.1,6.98 25.11,6.98 10.98,0 20.24,-3.18 27.84,-9.5 7.6,-6.35 12.74,-15.75 15.44,-28.25z"/>
   <g>
    <path class="fil2" d="M75.75 0l628 0c127.2,0 238.92,69.6 298.99,172.6l-128.42 51.63c-34.27,-46.39 -87.89,-76.26 -148.16,-76.26 -103.46,0 -187.34,88 -187.34,196.55 0,108.56 83.87,196.55 187.34,196.55 79.35,0 147.17,-51.75 174.48,-124.84l-194.08 0 0 -122.48c113.66,0 225.61,-0.55 339,-0.55 2.65,17.17 4.03,34.75 4.03,52.63l0 0.01c0,190.21 -155.63,345.83 -345.83,345.83l-628 0c190.21,0 345.83,-155.62 345.83,-345.83l0 -0.01c0,-190.21 -155.63,-345.83 -345.83,-345.83z"/>
    <path class="fil3" d="M-0 152.54l52.81 0c106.31,0 193.3,86.98 193.3,193.3l0 0c0,106.31 -86.98,193.3 -193.3,193.3l-52.81 0 0 -386.61z"/>
   </g>
  </g>
 </g>
</svg>
